ffmpeg started on 2025-05-05 at 19:49:52
Report written to "D:\Convert\FFMetrics\reports\ssim_report-6.txt"
Log level: 32
Command line:
ffmpeg -hide_banner -nostdin -i "G:\\\xc0\xed\xe8\xec\xe5\\\xce\xed\xe3\xee\xe8\xed\xe3\xe8\\!_35_\xcb\xe5\xf2\xee_2024\\JamClub\\\xdf \xef\xe0\xf0\xe8\xf0\xee\xe2\xe0\xeb \xe2\xf1\xb8 \xe2\xf0\xe5\xec\xff, \xf7\xf2\xee\xe1\xfb \xf1\xf2\xe0\xf2\xfc \xf1\xe8\xeb\xfc\xed\xe5\xe9\xf8\xe8\xec \xe0\xe2\xe0\xed\xf2\xfe\xf0\xe8\xf1\xf2\xee\xec\\JamClub_I_Parry_Everything_08_1080p_HEVC.mkv" -i "G:\\\xc0\xed\xe8\xec\xe5\\\xce\xed\xe3\xee\xe8\xed\xe3\xe8\\!_35_\xcb\xe5\xf2\xee_2024\\JamClub\\\xdf \xef\xe0\xf0\xe8\xf0\xee\xe2\xe0\xeb \xe2\xf1\xb8 \xe2\xf0\xe5\xec\xff, \xf7\xf2\xee\xe1\xfb \xf1\xf2\xe0\xf2\xfc \xf1\xe8\xeb\xfc\xed\xe5\xe9\xf8\xe8\xec \xe0\xe2\xe0\xed\xf2\xfe\xf0\xe8\xf1\xf2\xee\xec\\JamClub_I_Parry_Everything_08_1080p.mp4" -lavfi "[0:v]settb=AVTB,setpts=PTS-STARTPTS,format=pix_fmts=yuv420p10,fps=24000/1001,scale=1920:1080:flags=bicubic[main];[1:v]settb=AVTB,setpts=PTS-STARTPTS,format=pix_fmts=yuv420p,fps=24000/1001,scale=1920:1080:flags=bicubic[ref];[main][ref]ssim=eof_action=endall:stats_file='D\\:/Convert/FFMetrics/logs/ssim_logfile-6.txt'" -f null -
Input #0, matroska,webm, from 'G:\Аниме\Онгоинги\!_35_Лето_2024\JamClub\Я парировал всё время, чтобы стать сильнейшим авантюристом\JamClub_I_Parry_Everything_08_1080p_HEVC.mkv':
  Metadata:
    COMPATIBLE_BRANDS: isomiso2avc1mp41
    MAJOR_BRAND     : isom
    MINOR_VERSION   : 512
    ENCODER         : Lavf61.7.100
  Duration: 00:24:03.69, start: -0.001000, bitrate: 1387 kb/s
  Stream #0:0: Video: hevc (Main 10), yuv420p10le(tv, bt709, progressive), 1920x1080 [SAR 1:1 DAR 16:9], 23.98 fps, 23.98 tbr, 1k tbn (default)
      Metadata:
        HANDLER_NAME    : VideoHandler
        VENDOR_ID       : [0][0][0][0]
        ENCODER         : Lavc61.19.100 libx265
        BPS             : 1189523
        DURATION        : 00:24:03.608708333
        NUMBER_OF_FRAMES: 34612
        NUMBER_OF_BYTES : 214650783
        _STATISTICS_WRITING_APP: mkvpropedit v66.0.0 ('Josie') 64-bit
        _STATISTICS_WRITING_DATE_UTC: 2025-05-05 11:13:27
        _STATISTICS_TAGS: BPS DURATION NUMBER_OF_FRAMES NUMBER_OF_BYTES
  Stream #0:1(eng): Audio: aac (LC), 48000 Hz, stereo, fltp (default)
      Metadata:
        HANDLER_NAME    : SoundHandler
        VENDOR_ID       : [0][0][0][0]
        ENCODER         : Lavc61.19.100 aac
        BPS             : 193943
        DURATION        : 00:24:03.651000000
        NUMBER_OF_FRAMES: 67672
        NUMBER_OF_BYTES : 34998268
        _STATISTICS_WRITING_APP: mkvpropedit v66.0.0 ('Josie') 64-bit
        _STATISTICS_WRITING_DATE_UTC: 2025-05-05 11:13:27
        _STATISTICS_TAGS: BPS DURATION NUMBER_OF_FRAMES NUMBER_OF_BYTES
Input #1, mov,mp4,m4a,3gp,3g2,mj2, from 'G:\Аниме\Онгоинги\!_35_Лето_2024\JamClub\Я парировал всё время, чтобы стать сильнейшим авантюристом\JamClub_I_Parry_Everything_08_1080p.mp4':
  Metadata:
    major_brand     : isom
    minor_version   : 512
    compatible_brands: isomiso2avc1mp41
    encoder         : Lavf60.16.100
  Duration: 00:24:03.67, start: 0.000000, bitrate: 4873 kb/s
  Stream #1:0[0x1](und): Video: h264 (High) (avc1 / 0x31637661), yuv420p(progressive), 1920x1080 [SAR 1:1 DAR 16:9], 4676 kb/s, 23.98 fps, 23.98 tbr, 90k tbn (default)
      Metadata:
        handler_name    : VideoHandler
        vendor_id       : [0][0][0][0]
  Stream #1:1[0x2](eng): Audio: aac (LC) (mp4a / 0x6134706D), 48000 Hz, stereo, fltp, 191 kb/s (default)
      Metadata:
        handler_name    : SoundHandler
        vendor_id       : [0][0][0][0]
Stream mapping:
  Stream #0:0 (hevc) -> settb:default
  Stream #1:0 (h264) -> settb:default
  ssim:default -> Stream #0:0 (wrapped_avframe)
  Stream #0:1 -> #0:1 (aac (native) -> pcm_s16le (native))
Output #0, null, to 'pipe:':
  Metadata:
    COMPATIBLE_BRANDS: isomiso2avc1mp41
    MAJOR_BRAND     : isom
    MINOR_VERSION   : 512
    encoder         : Lavf61.7.100
  Stream #0:0: Video: wrapped_avframe, yuv420p10le(tv, bt709, progressive), 1920x1080 [SAR 1:1 DAR 16:9], q=2-31, 200 kb/s, 23.98 fps, 23.98 tbn
      Metadata:
        encoder         : Lavc61.19.100 wrapped_avframe
  Stream #0:1(eng): Audio: pcm_s16le, 48000 Hz, stereo, s16, 1536 kb/s (default)
      Metadata:
        HANDLER_NAME    : SoundHandler
        VENDOR_ID       : [0][0][0][0]
        _STATISTICS_TAGS: BPS DURATION NUMBER_OF_FRAMES NUMBER_OF_BYTES
        BPS             : 193943
        DURATION        : 00:24:03.651000000
        NUMBER_OF_FRAMES: 67672
        NUMBER_OF_BYTES : 34998268
        _STATISTICS_WRITING_APP: mkvpropedit v66.0.0 ('Josie') 64-bit
        _STATISTICS_WRITING_DATE_UTC: 2025-05-05 11:13:27
        encoder         : Lavc61.19.100 pcm_s16le
frame=  112 fps=0.0 q=-0.0 size=N/A time=00:00:04.67 bitrate=N/A speed=8.98x    frame=  267 fps=260 q=-0.0 size=N/A time=00:00:11.13 bitrate=N/A speed=10.9x    frame=  464 fps=299 q=-0.0 size=N/A time=00:00:19.35 bitrate=N/A speed=12.5x    frame=  711 fps=346 q=-0.0 size=N/A time=00:00:29.65 bitrate=N/A speed=14.4x    frame=  951 fps=369 q=-0.0 size=N/A time=00:00:39.66 bitrate=N/A speed=15.4x    frame= 1203 fps=388 q=-0.0 size=N/A time=00:00:50.17 bitrate=N/A speed=16.2x    frame= 1439 fps=399 q=-0.0 size=N/A time=00:01:00.01 bitrate=N/A speed=16.7x    frame= 1691 fps=410 q=-0.0 size=N/A time=00:01:10.52 bitrate=N/A speed=17.1x    frame= 1934 fps=418 q=-0.0 size=N/A time=00:01:20.66 bitrate=N/A speed=17.4x    frame= 2178 fps=422 q=-0.0 size=N/A time=00:01:30.84 bitrate=N/A speed=17.6x    frame= 2414 fps=426 q=-0.0 size=N/A time=00:01:40.68 bitrate=N/A speed=17.8x    frame= 2622 fps=423 q=-0.0 size=N/A time=00:01:49.35 bitrate=N/A speed=17.7x    frame= 2854 fps=426 q=-0.0 size=N/A time=00:01:59.03 bitrate=N/A speed=17.8x    frame= 3083 fps=427 q=-0.0 size=N/A time=00:02:08.58 bitrate=N/A speed=17.8x    frame= 3292 fps=426 q=-0.0 size=N/A time=00:02:17.30 bitrate=N/A speed=17.8x    frame= 3508 fps=425 q=-0.0 size=N/A time=00:02:26.31 bitrate=N/A speed=17.7x    frame= 3667 fps=419 q=-0.0 size=N/A time=00:02:32.94 bitrate=N/A speed=17.5x    frame= 3844 fps=414 q=-0.0 size=N/A time=00:02:40.32 bitrate=N/A speed=17.3x    frame= 4066 fps=415 q=-0.0 size=N/A time=00:02:49.58 bitrate=N/A speed=17.3x    frame= 4263 fps=414 q=-0.0 size=N/A time=00:02:57.80 bitrate=N/A speed=17.2x    frame= 4398 fps=406 q=-0.0 size=N/A time=00:03:03.43 bitrate=N/A speed=  17x    frame= 4573 fps=403 q=-0.0 size=N/A time=00:03:10.73 bitrate=N/A speed=16.8x    frame= 4730 fps=399 q=-0.0 size=N/A time=00:03:17.28 bitrate=N/A speed=16.6x    frame= 4972 fps=402 q=-0.0 size=N/A time=00:03:27.37 bitrate=N/A speed=16.8x    frame= 5204 fps=404 q=-0.0 size=N/A time=00:03:37.05 bitrate=N/A speed=16.8x    frame= 5461 fps=407 q=-0.0 size=N/A time=00:03:47.76 bitrate=N/A speed=  17x    frame= 5738 fps=412 q=-0.0 size=N/A time=00:03:59.32 bitrate=N/A speed=17.2x    frame= 5966 fps=413 q=-0.0 size=N/A time=00:04:08.83 bitrate=N/A speed=17.2x    frame= 6186 fps=414 q=-0.0 size=N/A time=00:04:18.00 bitrate=N/A speed=17.3x    frame= 6442 fps=417 q=-0.0 size=N/A time=00:04:28.68 bitrate=N/A speed=17.4x    frame= 6670 fps=417 q=-0.0 size=N/A time=00:04:38.19 bitrate=N/A speed=17.4x    frame= 6931 fps=420 q=-0.0 size=N/A time=00:04:49.08 bitrate=N/A speed=17.5x    frame= 7166 fps=421 q=-0.0 size=N/A time=00:04:58.88 bitrate=N/A speed=17.6x    frame= 7419 fps=423 q=-0.0 size=N/A time=00:05:09.43 bitrate=N/A speed=17.7x    frame= 7701 fps=427 q=-0.0 size=N/A time=00:05:21.19 bitrate=N/A speed=17.8x    frame= 7967 fps=429 q=-0.0 size=N/A time=00:05:32.29 bitrate=N/A speed=17.9x    frame= 8215 fps=430 q=-0.0 size=N/A time=00:05:42.63 bitrate=N/A speed=  18x    frame= 8462 fps=432 q=-0.0 size=N/A time=00:05:52.93 bitrate=N/A speed=  18x    frame= 8704 fps=432 q=-0.0 size=N/A time=00:06:03.02 bitrate=N/A speed=  18x    frame= 8961 fps=434 q=-0.0 size=N/A time=00:06:13.74 bitrate=N/A speed=18.1x    frame= 9232 fps=436 q=-0.0 size=N/A time=00:06:25.05 bitrate=N/A speed=18.2x    frame= 9501 fps=438 q=-0.0 size=N/A time=00:06:36.27 bitrate=N/A speed=18.3x    frame= 9779 fps=440 q=-0.0 size=N/A time=00:06:47.86 bitrate=N/A speed=18.4x    frame=10029 fps=442 q=-0.0 size=N/A time=00:06:58.29 bitrate=N/A speed=18.4x    frame=10297 fps=443 q=-0.0 size=N/A time=00:07:09.47 bitrate=N/A speed=18.5x    frame=10535 fps=444 q=-0.0 size=N/A time=00:07:19.39 bitrate=N/A speed=18.5x    frame=10775 fps=444 q=-0.0 size=N/A time=00:07:29.40 bitrate=N/A speed=18.5x    frame=11016 fps=445 q=-0.0 size=N/A time=00:07:39.45 bitrate=N/A speed=18.5x    frame=11270 fps=446 q=-0.0 size=N/A time=00:07:50.05 bitrate=N/A speed=18.6x    frame=11524 fps=447 q=-0.0 size=N/A time=00:08:00.64 bitrate=N/A speed=18.6x    frame=11794 fps=448 q=-0.0 size=N/A time=00:08:11.90 bitrate=N/A speed=18.7x    frame=12067 fps=450 q=-0.0 size=N/A time=00:08:23.29 bitrate=N/A speed=18.8x    frame=12284 fps=449 q=-0.0 size=N/A time=00:08:32.34 bitrate=N/A speed=18.7x    frame=12551 fps=450 q=-0.0 size=N/A time=00:08:43.48 bitrate=N/A speed=18.8x    frame=12770 fps=450 q=-0.0 size=N/A time=00:08:52.61 bitrate=N/A speed=18.8x    frame=13028 fps=451 q=-0.0 size=N/A time=00:09:03.37 bitrate=N/A speed=18.8x    frame=13269 fps=451 q=-0.0 size=N/A time=00:09:13.42 bitrate=N/A speed=18.8x    frame=13530 fps=452 q=-0.0 size=N/A time=00:09:24.31 bitrate=N/A speed=18.9x    frame=13768 fps=452 q=-0.0 size=N/A time=00:09:34.24 bitrate=N/A speed=18.9x    frame=13965 fps=451 q=-0.0 size=N/A time=00:09:42.45 bitrate=N/A speed=18.8x    frame=14196 fps=451 q=-0.0 size=N/A time=00:09:52.09 bitrate=N/A speed=18.8x    frame=14384 fps=450 q=-0.0 size=N/A time=00:09:59.93 bitrate=N/A speed=18.7x    frame=14606 fps=449 q=-0.0 size=N/A time=00:10:09.19 bitrate=N/A speed=18.7x    frame=14819 fps=449 q=-0.0 size=N/A time=00:10:18.07 bitrate=N/A speed=18.7x    frame=15047 fps=449 q=-0.0 size=N/A time=00:10:27.58 bitrate=N/A speed=18.7x    frame=15292 fps=449 q=-0.0 size=N/A time=00:10:37.80 bitrate=N/A speed=18.7x    frame=15498 fps=448 q=-0.0 size=N/A time=00:10:46.39 bitrate=N/A speed=18.7x    frame=15730 fps=448 q=-0.0 size=N/A time=00:10:56.07 bitrate=N/A speed=18.7x    frame=15992 fps=449 q=-0.0 size=N/A time=00:11:06.99 bitrate=N/A speed=18.7x    frame=16219 fps=449 q=-0.0 size=N/A time=00:11:16.46 bitrate=N/A speed=18.7x    frame=16478 fps=450 q=-0.0 size=N/A time=00:11:27.26 bitrate=N/A speed=18.8x    frame=16731 fps=450 q=-0.0 size=N/A time=00:11:37.82 bitrate=N/A speed=18.8x    frame=16940 fps=450 q=-0.0 size=N/A time=00:11:46.53 bitrate=N/A speed=18.8x    frame=17214 fps=451 q=-0.0 size=N/A time=00:11:57.96 bitrate=N/A speed=18.8x    frame=17470 fps=451 q=-0.0 size=N/A time=00:12:08.64 bitrate=N/A speed=18.8x    frame=17689 fps=451 q=-0.0 size=N/A time=00:12:17.77 bitrate=N/A speed=18.8x    frame=17904 fps=451 q=-0.0 size=N/A time=00:12:26.74 bitrate=N/A speed=18.8x    frame=18126 fps=450 q=-0.0 size=N/A time=00:12:36.00 bitrate=N/A speed=18.8x    frame=18376 fps=451 q=-0.0 size=N/A time=00:12:46.43 bitrate=N/A speed=18.8x    frame=18633 fps=451 q=-0.0 size=N/A time=00:12:57.15 bitrate=N/A speed=18.8x    frame=18906 fps=452 q=-0.0 size=N/A time=00:13:08.53 bitrate=N/A speed=18.9x    frame=19126 fps=452 q=-0.0 size=N/A time=00:13:17.71 bitrate=N/A speed=18.9x    frame=19359 fps=452 q=-0.0 size=N/A time=00:13:27.43 bitrate=N/A speed=18.9x    frame=19594 fps=452 q=-0.0 size=N/A time=00:13:37.23 bitrate=N/A speed=18.9x    frame=19833 fps=452 q=-0.0 size=N/A time=00:13:47.20 bitrate=N/A speed=18.9x    frame=20050 fps=452 q=-0.0 size=N/A time=00:13:56.25 bitrate=N/A speed=18.8x    frame=20227 fps=451 q=-0.0 size=N/A time=00:14:03.63 bitrate=N/A speed=18.8x    frame=20441 fps=450 q=-0.0 size=N/A time=00:14:12.56 bitrate=N/A speed=18.8x    frame=20652 fps=450 q=-0.0 size=N/A time=00:14:21.36 bitrate=N/A speed=18.8x    frame=20863 fps=449 q=-0.0 size=N/A time=00:14:30.16 bitrate=N/A speed=18.7x    frame=21068 fps=449 q=-0.0 size=N/A time=00:14:38.71 bitrate=N/A speed=18.7x    frame=21320 fps=449 q=-0.0 size=N/A time=00:14:49.22 bitrate=N/A speed=18.7x    frame=21553 fps=449 q=-0.0 size=N/A time=00:14:58.93 bitrate=N/A speed=18.7x    frame=21791 fps=449 q=-0.0 size=N/A time=00:15:08.86 bitrate=N/A speed=18.7x    frame=22038 fps=450 q=-0.0 size=N/A time=00:15:19.16 bitrate=N/A speed=18.8x    frame=22189 fps=448 q=-0.0 size=N/A time=00:15:25.46 bitrate=N/A speed=18.7x    frame=22350 fps=447 q=-0.0 size=N/A time=00:15:32.18 bitrate=N/A speed=18.6x    frame=22535 fps=446 q=-0.0 size=N/A time=00:15:39.89 bitrate=N/A speed=18.6x    frame=22777 fps=446 q=-0.0 size=N/A time=00:15:49.99 bitrate=N/A speed=18.6x    frame=23005 fps=446 q=-0.0 size=N/A time=00:15:59.50 bitrate=N/A speed=18.6x    frame=23201 fps=445 q=-0.0 size=N/A time=00:16:07.67 bitrate=N/A speed=18.6x    frame=23454 fps=446 q=-0.0 size=N/A time=00:16:18.22 bitrate=N/A speed=18.6x    frame=23663 fps=445 q=-0.0 size=N/A time=00:16:26.94 bitrate=N/A speed=18.6x    frame=23907 fps=445 q=-0.0 size=N/A time=00:16:37.12 bitrate=N/A speed=18.6x    frame=24093 fps=445 q=-0.0 size=N/A time=00:16:44.87 bitrate=N/A speed=18.5x    frame=24277 fps=444 q=-0.0 size=N/A time=00:16:52.55 bitrate=N/A speed=18.5x    frame=24493 fps=444 q=-0.0 size=N/A time=00:17:01.56 bitrate=N/A speed=18.5x    frame=24688 fps=443 q=-0.0 size=N/A time=00:17:09.69 bitrate=N/A speed=18.5x    frame=24863 fps=442 q=-0.0 size=N/A time=00:17:16.99 bitrate=N/A speed=18.4x    frame=25079 fps=442 q=-0.0 size=N/A time=00:17:26.00 bitrate=N/A speed=18.4x    frame=25336 fps=442 q=-0.0 size=N/A time=00:17:36.72 bitrate=N/A speed=18.5x    frame=25586 fps=443 q=-0.0 size=N/A time=00:17:47.14 bitrate=N/A speed=18.5x    frame=25810 fps=443 q=-0.0 size=N/A time=00:17:56.49 bitrate=N/A speed=18.5x    frame=26021 fps=442 q=-0.0 size=N/A time=00:18:05.29 bitrate=N/A speed=18.4x    frame=26255 fps=442 q=-0.0 size=N/A time=00:18:15.05 bitrate=N/A speed=18.5x    frame=26504 fps=443 q=-0.0 size=N/A time=00:18:25.43 bitrate=N/A speed=18.5x    frame=26744 fps=443 q=-0.0 size=N/A time=00:18:35.44 bitrate=N/A speed=18.5x    frame=26944 fps=443 q=-0.0 size=N/A time=00:18:43.78 bitrate=N/A speed=18.5x    frame=27179 fps=443 q=-0.0 size=N/A time=00:18:53.59 bitrate=N/A speed=18.5x    frame=27412 fps=443 q=-0.0 size=N/A time=00:19:03.30 bitrate=N/A speed=18.5x    frame=27639 fps=443 q=-0.0 size=N/A time=00:19:12.77 bitrate=N/A speed=18.5x    frame=27902 fps=443 q=-0.0 size=N/A time=00:19:23.74 bitrate=N/A speed=18.5x    frame=28116 fps=443 q=-0.0 size=N/A time=00:19:32.67 bitrate=N/A speed=18.5x    frame=28365 fps=443 q=-0.0 size=N/A time=00:19:43.05 bitrate=N/A speed=18.5x    frame=28630 fps=444 q=-0.0 size=N/A time=00:19:54.10 bitrate=N/A speed=18.5x    frame=28894 fps=444 q=-0.0 size=N/A time=00:20:05.12 bitrate=N/A speed=18.5x    frame=29158 fps=445 q=-0.0 size=N/A time=00:20:16.13 bitrate=N/A speed=18.6x    frame=29405 fps=445 q=-0.0 size=N/A time=00:20:26.43 bitrate=N/A speed=18.6x    frame=29635 fps=445 q=-0.0 size=N/A time=00:20:36.02 bitrate=N/A speed=18.6x    frame=29838 fps=445 q=-0.0 size=N/A time=00:20:44.49 bitrate=N/A speed=18.6x    frame=30060 fps=445 q=-0.0 size=N/A time=00:20:53.75 bitrate=N/A speed=18.6x    frame=30283 fps=445 q=-0.0 size=N/A time=00:21:03.05 bitrate=N/A speed=18.5x    frame=30505 fps=444 q=-0.0 size=N/A time=00:21:12.31 bitrate=N/A speed=18.5x    frame=30758 fps=445 q=-0.0 size=N/A time=00:21:22.86 bitrate=N/A speed=18.6x    frame=30982 fps=445 q=-0.0 size=N/A time=00:21:32.20 bitrate=N/A speed=18.6x    frame=31228 fps=445 q=-0.0 size=N/A time=00:21:42.46 bitrate=N/A speed=18.6x    frame=31492 fps=446 q=-0.0 size=N/A time=00:21:53.47 bitrate=N/A speed=18.6x    frame=31741 fps=446 q=-0.0 size=N/A time=00:22:03.86 bitrate=N/A speed=18.6x    frame=31986 fps=446 q=-0.0 size=N/A time=00:22:14.08 bitrate=N/A speed=18.6x    frame=32230 fps=446 q=-0.0 size=N/A time=00:22:24.25 bitrate=N/A speed=18.6x    frame=32480 fps=447 q=-0.0 size=N/A time=00:22:34.68 bitrate=N/A speed=18.6x    frame=32736 fps=447 q=-0.0 size=N/A time=00:22:45.36 bitrate=N/A speed=18.6x    frame=32906 fps=446 q=-0.0 size=N/A time=00:22:52.45 bitrate=N/A speed=18.6x    frame=33099 fps=446 q=-0.0 size=N/A time=00:23:00.50 bitrate=N/A speed=18.6x    frame=33336 fps=446 q=-0.0 size=N/A time=00:23:10.38 bitrate=N/A speed=18.6x    frame=33534 fps=445 q=-0.0 size=N/A time=00:23:18.64 bitrate=N/A speed=18.6x    frame=33721 fps=445 q=-0.0 size=N/A time=00:23:26.44 bitrate=N/A speed=18.5x    frame=33869 fps=444 q=-0.0 size=N/A time=00:23:32.61 bitrate=N/A speed=18.5x    frame=34073 fps=443 q=-0.0 size=N/A time=00:23:41.12 bitrate=N/A speed=18.5x    frame=34267 fps=443 q=-0.0 size=N/A time=00:23:49.21 bitrate=N/A speed=18.5x    frame=34467 fps=442 q=-0.0 size=N/A time=00:23:57.56 bitrate=N/A speed=18.5x    [Parsed_ssim_10 @ 000001b42e32d600] SSIM Y:0.993985 (22.207570) U:0.994258 (22.409073) V:0.994596 (22.672601) All:0.994132 (22.315209)
[out#0/null @ 000001b417713ec0] video:14872KiB audio:270688KiB subtitle:0KiB other streams:0KiB global headers:0KiB muxing overhead: unknown
frame=34612 fps=442 q=-0.0 Lsize=N/A time=00:24:03.60 bitrate=N/A speed=18.5x    
